<?xml version="1.0" standalone="no"?>
<!DOCTYPE svg PUBLIC "-//W3C//DTD SVG 20010904//EN"
 "http://www.w3.org/TR/2001/REC-SVG-20010904/DTD/svg10.dtd">
<svg version="1.0" xmlns="http://www.w3.org/2000/svg"
 width="300.000000pt" height="300.000000pt" viewBox="0 0 300.000000 300.000000"
 preserveAspectRatio="xMidYMid meet">
<metadata>
Created by potrace 1.14, written by Peter Selinger 2001-2017
</metadata>
<g transform="translate(0.000000,300.000000) scale(0.100000,-0.100000)"
fill="#000000" stroke="none">
<path d="M0 1500 l0 -1500 1500 0 1500 0 0 1500 0 1500 -1500 0 -1500 0 0
-1500z m1577 989 c164 -22 327 -105 457 -234 88 -87 114 -134 173 -321 l47
-149 3 -259 4 -259 -66 -216 c-78 -255 -119 -340 -265 -559 -95 -143 -111
-161 -173 -202 -88 -59 -255 -146 -263 -138 -3 4 3 19 14 35 68 97 198 388
257 576 27 86 40 154 55 287 13 120 16 178 9 187 -6 6 -26 17 -45 23 -30 10
-57 6 -202 -29 -281 -67 -279 -67 -379 -42 -49 12 -105 26 -125 32 -44 11
-105 85 -168 202 -74 136 -84 175 -82 324 3 331 112 557 322 667 154 81 254
99 427 75z"/>
<path d="M1418 2332 c-112 -30 -143 -73 -185 -259 -34 -149 -39 -376 -10 -483
31 -115 47 -143 115 -213 65 -66 68 -68 106 -61 65 11 205 61 275 100 138 75
151 101 151 306 0 119 -6 186 -25 294 -13 78 -29 154 -35 170 -15 39 -97 123
-138 140 -55 24 -177 27 -254 6z"/>
<path d="M1744 2331 c3 -4 27 -16 53 -26 26 -10 52 -21 57 -26 5 -4 28 -63 51
-131 23 -68 64 -184 91 -258 l49 -135 -1 -215 c-2 -228 -13 -330 -59 -510 -30
-120 -92 -298 -144 -418 -22 -51 -36 -92 -32 -92 14 0 108 124 135 177 61 122
126 299 141 381 25 150 47 567 35 695 -16 177 -19 187 -71 267 -30 47 -53 95
-60 130 -15 73 -71 131 -148 154 -59 17 -105 21 -97 7z"/>
<path d="M1093 2197 c-46 -48 -121 -206 -144 -305 -36 -148 -13 -241 90 -378
28 -37 51 -63 51 -57 0 5 -13 49 -30 97 -42 124 -53 193 -41 258 11 56 83 332
100 382 6 16 9 31 8 33 -2 1 -17 -12 -34 -30z"/>
</g>
</svg>
